<svg viewBox="0 0 371 221" xmlns="http://www.w3.org/2000/svg" xmlns:xlink="http://www.w3.org/1999/xlink"><mask id="a" fill="#fff"><path d="m3.32 7.67c2.24.95 4.74.07 5.56-1.97.8-1.97-.34-4.34-2.58-5.3-2.23-.93-4.74-.05-5.55 2-.75 1.96.4 4.34 2.57 5.3z" fill="#fff"/></mask><mask id="b" fill="#fff"><path d="m2.98 7.74c2.24.95 4.75.07 5.56-1.97.8-1.97-.34-4.34-2.58-5.3-2.23-.93-4.74-.05-5.56 1.98-.73 2.03.4 4.4 2.6 5.3z" fill="#fff"/></mask><mask id="c" fill="#fff"><path d="m3.46.8s3.18-1.27 11.44 1.66c8.27 2.85 13.02 25.6.35 32.05 0 0-23.18-12.5-11.8-33.6z" fill="#fff"/></mask><mask id="d" fill="#fff"><path d="m.68.27a.6.6 0 0 0 -.6.6c0 .35.26.62.6.62a.6.6 0 0 0 .6-.7.6.6 0 0 0 -.6-.6z" fill="#fff"/></mask><mask id="e" fill="#fff"><path d="m2.44 0a1.84 1.84 0 1 0 0 3.67 1.84 1.84 0 0 0 0-3.67z" fill="#fff"/></mask><mask id="f" fill="#fff"><path d="m5.08 3.67a2.47 2.47 0 0 1 -3.18 1.35 2.48 2.48 0 0 1 -1.36-3.2 2.47 2.47 0 0 1 3.2-1.34 2.4 2.4 0 0 1 1.33 3.2z" fill="#fff"/></mask><mask id="g" fill="#fff"><path d="m.68.27a.6.6 0 0 0 -.6.6c0 .35.26.62.6.62a.6.6 0 0 0 .6-.7.6.6 0 0 0 -.6-.6z" fill="#fff"/></mask><mask id="h" fill="#fff"><path d="m2.03.2a1.84 1.84 0 0 0 0 3.67 1.8 1.8 0 0 0 1.83-1.83c.07-1.02-.8-1.84-1.83-1.84z" fill="#fff"/></mask><mask id="i" fill="#fff"><path d="m.4 1.56a2.42 2.42 0 0 0 1.36 3.2 2.4 2.4 0 0 0 3.2-1.36 2.42 2.42 0 0 0 -1.38-3.2 2.44 2.44 0 0 0 -3.18 1.37z" fill="#fff"/></mask><mask id="j" fill="#fff"><path d="m12.94 2.04c-5.76-2.38-11.3-2.1-12.47.68-1.15 2.78 2.58 7 8.34 9.36 5.8 2.38 11.4 2.1 12.5-.68 1.2-2.78-2.6-7-8.3-9.36z" fill="#fff"/></mask><mask id="k" fill="#fff"><path d="m13.2 1.7c-5.74-2.38-11.3-2.1-12.45.68s2.58 7 8.34 9.37c5.7 2.37 11.3 2.1 12.4-.68 1.1-2.8-2.6-7-8.4-9.37z" fill="#fff"/></mask><mask id="l" fill="#fff"><path d="m17 12.3c10.66-10.14 25.9-15.23 39.05-9.73s20.25 19.97 20.52 34.63c.27 14.67-5.9 29.54-5.9 29.54-15.58 9.3-40.8-1.5-40.8-1.5s-25.4-10.44-29.72-28.02c-.08-.02 6.15-14.87 16.85-24.92z" fill="#fff"/></mask><mask id="m" fill="#fff"><path d="m41.74.47c-9 .75-17.9 5.17-24.87 11.82-10.64 10.11-16.8 24.91-16.8 24.91 1.5 6.18 5.56 11.4 10.16 15.68-2.83-6.38-3.8-13.38-3.8-13.38 14.17-35.3 34.97-38.95 35.3-39.02zm25.82 10.73c5.76 7 8.88 16.36 9.08 26 .34 14.67-5.9 29.54-5.9 29.54-5.4 3.26-12 4.08-18.3 3.74a51 51 0 0 0 12.2-6.72c15.1-34.9 3.12-52.2 2.92-52.55z" fill="#fff"/></mask><mask id="n" fill="#fff"><path d="m.4 3.12v-1.42l5.98-1.16-3.68 5.16z" fill="#fff"/></mask><mask id="o" fill="#fff"><path d="m6.37.54-6.03 1.16.26 6.3 5.57 4.36c.06 0 1.5-6.1.2-11.82z" fill="#fff"/></mask><mask id="p" fill="#fff"><path d="m3.52 6.18 1.02-.95-3.4-5.1-1.06 6.33z" fill="#fff"/></mask><mask id="q" fill="#fff"><path d="m8.6.14 3.4 5.02-4.6 4.2-7.06-.94c0 .14 3.32-5.16 8.27-8.28z" fill="#fff"/></mask><mask id="r" fill="#fff"><path d="m14.03 6.18a42.94 42.94 0 0 1 19.3-6.04 34.5 34.5 0 0 1 19.73 4.48 32.46 32.46 0 0 1 13 14.73 36.75 36.75 0 0 1 2.86 18.33c0 .2-.07.48-.07.68-.07.68-.2 1.36-.34 2.04-.5 3.8-1.6 10.32-2.3 11-1.2.95-1 .6-1.3 1.5-.4.87.5 1.28-.9 1.9-6.6-7.5-16.7-15.7-28.9-22.83-12.2-7.2-24.3-12.1-34.4-14.33a55.63 55.63 0 0 1 13.29-11.46z" fill="#fff"/></mask><mask id="s" fill="#fff"><path d="m27.78 34.3c-1.42 2.77-4.6 2.9-9.55.33-1.3-.62-2.5-1.36-3.6-1.97-9.53-5.56-11.1-9.9-13.93-17.8 0-.06-.07-.26-.14-.47 7.1 3.61 14.56-2.39 18.2-13.79 2.65 4.76 4.4 8.1 4.4 8.23 0 0 1.98 4.75 3.54 10.18 2.03 7.4 2.43 12.7 1.08 15.3z" fill="#fff"/></mask><mask id="t" fill="#fff"><path d="m27.78 34.3c-1.42 2.77-4.6 2.9-9.55.33-1.3-.62-2.5-1.36-3.6-1.97-9.53-5.56-11.1-9.9-13.93-17.8 0-.06-.07-.26-.14-.47 7.1 3.61 14.56-2.39 18.2-13.79 2.65 4.76 4.4 8.1 4.4 8.23 0 0 1.98 4.75 3.54 10.18 2.03 7.4 2.43 12.7 1.08 15.3z" fill="#fff"/></mask><mask id="u" fill="#fff"><path d="m4.13.75 1.22-.6s-5.15 33.8 12.2 57.15c17.28 23.43-6.9-1.97-6.9-1.97l-7.88-11.88c0 .2-5.97-36.45 1.35-42.7z" fill="#fff"/></mask><mask id="v" fill="#fff"><path d="m25.68 34.76s-11.72-23-21.75-34.5c-6.57 14.27-1.56 37.15-.4 40.34 3.18 8.83 4.74 13.1 17.4 19.7 19.53 10.04 4.75-25.54 4.75-25.54z" fill="#fff"/></mask><mask id="w" fill="#fff"><path d="m25.68 34.76s-11.72-23-21.75-34.5c-6.57 14.27-1.56 37.15-.4 40.34 3.18 8.83 4.74 13.1 17.4 19.7 19.53 10.04 4.75-25.54 4.75-25.54z" fill="#fff"/></mask><mask id="x" fill="#fff"><path d="m.07 0h29.48v22.4h-29.48z" fill="#fff"/></mask><mask id="y" fill="#fff"><path d="m.88 4c.8-2.3 3.72-3.6 8.68-3.85 1.35-.07 2.5-.07 3.66-.07 9.7 0 11.92 2.17 15.92 6.18.07.06.13.13.2.27-7.18.34-13 7-14.43 15.68a95.07 95.07 0 0 1 -5.4-3.6s-2.6-2.3-4.9-5.2c-3.21-3.91-4.51-7.11-3.71-9.41z" fill="#fff"/></mask><mask id="z" fill="#fff"><path d="m.88 4c.8-2.3 3.72-3.6 8.68-3.85 1.35-.07 2.5-.07 3.66-.07 9.7 0 11.92 2.17 15.92 6.18.07.06.13.13.2.27-7.18.34-13 7-14.43 15.68a95.07 95.07 0 0 1 -5.4-3.6s-2.6-2.3-4.9-5.2c-3.21-3.91-4.51-7.11-3.71-9.41z" fill="#fff"/></mask><mask id="A" fill="#fff"><path d="m.4 0c.35 0 15.6 13.85 28.95 21.45 0 0-22.1-7.13-24.53-10.66-2.44-3.79-4.42-10.79-4.42-10.79z" fill="#fff"/></mask><mask id="B" fill="#fff"><path d="m8.95 18.47s14.7 10.32 25.88 13.85c3.66-11.54-4.88-24.3-6.5-25.87-4.5-4.35-6.6-6.6-19.33-6.05-19.7.9-.05 18.07-.05 18.07z" fill="#fff"/></mask><mask id="C" fill="#fff"><path d="m56.92 20.16s-4.47 9.1-14.03 9.1c-9.7 0-22.5-25.53-35.8-28.5-13.4-3-3.6 10.78-3.5 3.58l1.5 5.64 2.2 6.18 21.4 14.4 14.1 3.84c0-.06 19.3-5.02 14-14.25z" fill="#fff"/></mask><mask id="D" fill="#fff"><path d="m3.05 25.66s7.1-11.96 17.95-18.86c10.85-7 25.76-8.77 37.6-1.64 11.95 7.14 17.44 20.98 16.5 33.88-.4 5.84-2.1 11.46-3.86 15.96.2 1.62 1.5 13.23-7.86 17.5-10.1 4.63-19.52-4.06-23.04-7.46-4.14-3.66-5.63-6.58-11.4-9.98-8.4-4.95-11.5-2.7-22.9-9.5s-2.98-19.9-2.98-19.9z" fill="#fff"/></mask><mask id="E" fill="#fff"><path d="m1.7 7.67c-4.7 9.03 3.6 22.68 18.55 30.43 14.9 7.8 30.83 6.7 35.58-2.32 4.67-9.03-3.6-22.68-18.57-30.42-14.96-7.74-30.9-6.72-35.56 2.3z" fill="#fff"/></mask><mask id="F" fill="#fff"><path d="m13.08 66.94s-8.74-10.72-11.6-23.34c-2.83-12.64.55-27.17 11.33-36 10.8-8.75 25.7-9.23 37.4-4 5.3 2.37 10.1 5.9 13.7 9.03 1.7.34 13 3.12 13.8 13.37.9 11.07-10.4 17.04-14.9 19.15-4.8 2.65-8.1 3.12-13.2 7.25-7.5 6.3-6.5 9.97-16.7 18.38-10.4 8.5-19.7-3.8-19.7-3.8z" fill="#fff"/></mask><mask id="G" fill="#fff"><path d="m3.05 25.66s7.1-11.96 17.95-18.86c10.85-7 25.76-8.77 37.6-1.64 11.95 7.14 17.44 20.98 16.5 33.88-.4 5.84-2.1 11.46-3.86 15.96.2 1.62 1.5 13.23-7.86 17.5-10.1 4.63-19.52-4.06-23.04-7.46-4.14-3.66-5.63-6.58-11.4-9.98-8.4-4.95-11.5-2.7-22.9-9.5s-2.98-19.9-2.98-19.9z" fill="#fff"/></mask><mask id="H" fill="#fff"><path d="m8.27 6.25c.8-2.3-.2-4.7-2.24-5.43-2.03-.75-4.33.54-5.15 2.78-.8 2.3.2 4.68 2.24 5.43 2.03.74 4.33-.55 5.15-2.8z" fill="#fff"/></mask><mask id="I" fill="#fff"><path d="m8.27 6.25c.8-2.3-.2-4.7-2.24-5.43-2.03-.75-4.33.54-5.15 2.78-.8 2.3.2 4.68 2.24 5.43 2.03.74 4.33-.55 5.15-2.8z" fill="#fff"/></mask><mask id="J" fill="#fff"><path d="m.14 3.33c.2 1.42 1.42 2.5 2.7 2.3 1.3-.2 2.24-1.5 2.04-2.92-.2-1.41-1.43-2.51-2.72-2.21-1.36.08-2.23 1.38-2.03 2.88z" fill="#fff"/></mask><mask id="K" fill="#fff"><path d="m0 .54h113.3v150.53h-113.3z" fill="#fff"/></mask><mask id="L" fill="#fff"><path d="m.6 5.23c.36 2.37 2.3 4.14 4.5 3.8 2.17-.27 3.66-2.44 3.32-4.9-.36-2.36-2.32-4.13-4.5-3.8-2.15.37-3.64 2.54-3.32 4.9z" fill="#fff"/></mask><mask id="M" fill="#fff"><path d="m0 2.24c4.4-3.87 19.45-2.1 33.34 5.03 13.9 7.13 24.05 18.26 23.5 24.1l-1.68.75c.47-5.84-9.08-15.48-22.98-22.6-13.9-7.15-27.3-9.32-31.7-5.45z" fill="#fff"/></mask><mask id="N" fill="#fff"><path d="m.95.2s-.14 6.86 6.3 7l-.27 1.83h-4.13l-1.9-1.76s-2.1-3.95 0-7.07z" fill="#fff"/></mask><path d="m-1.28-1.3h11.64v12.44h-11.64z" fill="#7b573a" mask="url(#I)" transform="translate(314.08 139.5)"/><path d="m-1.76-3.12h17.9v12.22h-17.92z" fill="#040404" mask="url(#H)" opacity=".1" transform="translate(314.08 139.5)"/><path d="m-1.76-1.3h78.86v76.93h-78.85z" fill="#966d48" mask="url(#G)" transform="translate(268 72.96)"/><g mask="url(#F)" transform="translate(274.78 75)"><path d="m-1.48-1.7h60.44v46.92h-60.44z" fill="#b48564" mask="url(#E)" transform="translate(6.77 11.54)"/></g><g mask="url(#D)" opacity=".1" transform="translate(268 72.96)"><path d="m-1.76-1.5h61.46v37.82h-61.46z" fill="#040404" mask="url(#C)" transform="translate(15.58 41.4)"/></g><path d="m-1.63-1.48h39.23v35.7h-39.22z" fill="#966d48" mask="url(#B)" transform="translate(332.38 94.68)"/><path d="m-1.42-1.9h32.64v25.2h-32.65z" fill="#040404" mask="url(#A)" opacity=".1" transform="translate(337.8 105.55)"/><path d="m332.58 98.68c.8-2.3 3.72-3.6 8.68-3.85 1.35-.07 2.5-.07 3.66-.07 9.7 0 11.92 2.17 15.92 6.18.07.06.13.13.2.27-7.18.4-13 7-14.43 15.7a95.07 95.07 0 0 1 -5.4-3.6s-2.6-2.3-4.9-5.2c-3.2-3.9-4.5-7.1-3.7-9.4z" stroke="#9a4222" stroke-width=".55"/><path d="m-1.22-1.76h32.4v25.8h-32.4z" fill="#ce5127" mask="url(#z)" transform="translate(331.7 94.68)"/><g mask="url(#y)" transform="translate(331.7 94.68)"><path d="m13 4.4h18.17v19.7h-18.17z" fill="#ce5127"/><path d="m29.14 6.25c.07.06.13.13.2.27-7.18.34-13 7-14.43 15.68" mask="url(#x)" stroke="#9a4222" stroke-width="13.2"/></g><path d="m-5.1-1.28 29.28-4.27 10.12 69.47-29.27 4.28z" fill="#966d48" mask="url(#w)" transform="translate(274.78 20)"/><g mask="url(#v)" transform="translate(274.78 20)"><path d="m-5.63-1.13 20.85-3.04 10.78 73.97-20.84 3.02z" fill="#8b6141" mask="url(#u)" transform="translate(-1.34)"/></g><path d="m-3.3.93 29.1-4.23 6.07 41.65-29.1 4.24z" fill="#ce5127" mask="url(#t)" transform="translate(277.5 45.8)"/><path d="m.67 14.87c0-.07-.06-.27-.13-.48 7.13 3.61 14.6-2.39 18.23-13.79" mask="url(#s)" stroke="#9a4222" stroke-width="14.56" transform="translate(277.5 45.8)"/><path d="m-1.28-1.83h72.23v58.4h-72.23z" fill="#ce5127" mask="url(#r)" transform="translate(275.45 72.96)"/><path d="m-1.5-1.76h15.38v13.03h-15.38z" fill="#966d48" mask="url(#q)" transform="translate(322.9 21.36)"/><path d="m-1.84-1.76h8.2v10.04h-8.2z" fill="#8b6141" mask="url(#p)" transform="translate(330.34 21.36)"/><path d="m-1.5-1.36h10.3v15.54h-10.3z" fill="#966d48" mask="url(#o)" transform="translate(360.16 35.62)"/><path d="m-1.5-1.36h9.76v8.9h-9.76z" fill="#8b6141" mask="url(#n)" transform="translate(360.16 35.62)"/><path d="m-1.77-1.4h80.24v73.8h-80.24z" fill="#8b6141" mask="url(#m)" transform="translate(293.07 26.1)"/><path d="m-1.77-1.48h80.17v73.93h-80.16z" fill="#966d48" mask="url(#l)" transform="translate(293.07 26.1)"/><path d="m-1.36-1.83h24.94v17.03h-24.93z" fill="#8b6141" mask="url(#k)" transform="translate(314.08 79.07)"/><path d="m-1.63-1.48h24.93v17.04h-24.92z" fill="#040404" mask="url(#j)" transform="translate(314.76 77.7)"/><path d="m-1.62-1.83h8.6v8.63h-8.6z" fill="#b48564" mask="url(#i)" transform="translate(338.47 81.1)"/><path d="m-1.62-1.68h7.45v7.45h-7.45z" fill="#040404" mask="url(#h)" transform="translate(338.47 81.78)"/><path d="m-1.76-1.56h4.93v4.96h-4.93z" fill="#fff" mask="url(#g)" transform="translate(339.83 82.46)"/><path d="m-1.5-1.64h8.6v8.64h-8.6z" fill="#b48564" mask="url(#f)" transform="translate(312.72 70.24)"/><path d="m-1.3-1.83h7.47v7.46h-7.47z" fill="#010101" mask="url(#e)" transform="translate(313.4 71.6)"/><g mask="url(#d)" transform="translate(315.43 72.28)"><path d="m45.67 63.62h4.95v4.95h-4.95z" fill="#fff" mask="url(#K)" transform="translate(-47.43 -65.18)"/></g><path d="m-1.56-1.36h26.5v37.62h-26.5z" fill="#966d48" mask="url(#c)" transform="translate(273.42 89.93)"/><path d="m-1.28-2.17h11.58v12.5h-11.6z" fill="#7b573a" mask="url(#b)" transform="translate(276.8 101.47)"/><g mask="url(#a)" transform="translate(275.45 102.15)"><path d="m-1.77-1.57h8.54v9.03h-8.54z" fill="#af7246" mask="url(#J)" transform="translate(3.4 1.35)"/></g><g mask="url(#L)" transform="translate(276.8 100.8)"><path d="m-1.83-1.63h10.98v12.55h-10.98z" fill="#040404" mask="url(#N)" opacity=".1"/></g><path d="m-1.9-1.64h60.65v35.66h-60.65z" fill="#989a37" mask="url(#M)" transform="translate(314.08 31.54)"/><path d="m279.3 27.7.6-.5c.3-.3.4-.8.1-1.1s-.8-.4-1.1-.1l-.6.5c.3-.3.4-.8.1-1.1s-.8-.4-1.1-.1l-1.8 1.5c.3-.3.4-.8.1-1.1s-.8-.4-1.1-.1l-35.5 30.8-21.8 7.5 3.2 9.2 22.7-8 38-32.9c.3-.3.4-.8.1-1.1s-.7-.4-1.1-.1l-2.3 2c-.3.3-.8.2-1.1-.1s-.2-.8.1-1.1l3.5-3c.3-.3.4-.8.1-1.1-.2-.2-.7-.3-1.1 0z" fill="#9e5132"/><path d="m25.5 44.3h18.6v21.7h-18.6" fill="#a87942"/><path d="m19.3 28.8c-1.7 0-3.1-1.4-3.1-3.1 1.7 0 3.1-1.4 3.1-3.1h3.1v9.3c0 1.7-1.4 3.1-3.1 3.1s-3.1-1.4-3.1-3.1c1.7 0 3.1-1.3 3.1-3.1z" fill="#653614"/><path d="m50.3 28.8c1.7 0 3.1-1.4 3.1-3.1-1.7 0-3.1-1.4-3.1-3.1h-3.1v9.3c0 1.7 1.4 3.1 3.1 3.1s3.1-1.4 3.1-3.1c-1.7 0-3.1-1.3-3.1-3.1z" fill="#402511"/><path d="m6.9 86.2v-20.2c0-3.1 1.6-3.9 3.1-4.6l15.5-7.7c0 5.2 4.2 9.3 9.3 9.3s9.3-4.2 9.3-9.3l15.5 7.7c1.5.8 3.1 1.6 3.1 4.6v20.1h-9.3v41.9h-37.2v-41.8z" fill="#435055"/><path d="m28.3 60.3a9.35 9.35 0 0 0 15.8-6.7l15.5 7.7c1.5.8 3.1 1.6 3.1 4.6v20.1h-9.3v32.5h-9.3l-6.2-6.2 6.2-36.4z" fill="#232d30"/><path d="m25.5 53.6c0 4 2.5 7.5 6.2 8.8v50.1h-15.5v-26.4c2-3.2 3.1-6.9 3.1-10.7v-9.4c0-3.4-2.7-6.2-6.2-6.2z" fill="#a5c5e8"/><path d="m50.3 25.7c-1.7 0-3.1 1.4-3.1 3.1s1.4 3.1 3.1 3.1 3.1-1.4 3.1-3.1-1.4-3.1-3.1-3.1z" fill="#c79255"/><path d="m50.3 27.3c-.9 0-1.5.7-1.5 1.5 0 .9.7 1.5 1.5 1.5.9 0 1.6-.7 1.6-1.5-.1-.8-.7-1.5-1.6-1.5z" fill="#a87942"/><path d="m19.3 25.7c-1.7 0-3.1 1.4-3.1 3.1s1.4 3.1 3.1 3.1 3.1-1.4 3.1-3.1-1.4-3.1-3.1-3.1z" fill="#e8b274"/><path d="m19.3 27.3c-.9 0-1.5.7-1.5 1.5 0 .9.7 1.5 1.5 1.5.9 0 1.6-.7 1.6-1.5s-.7-1.5-1.6-1.5z" fill="#c79255"/><path d="m34.8 7.1c8.5 0 14.7 7 14.7 15.5v15.5c0 8.5-6.2 15.5-14.7 15.5s-14.7-7-14.7-15.5v-15.5c0-8.5 6.2-15.5 14.7-15.5z" fill="#e8b274"/><path d="m34.8 7.1c8.5 0 14.7 7 14.7 15.5v15.5c0 4.2-1.5 7.9-4 10.7l-25.5-25.5v-.8c.1-8.4 6.3-15.4 14.8-15.4z" fill="#c79255"/><path d="m27.1 25.7c1.7 0 3.1 1.4 3.1 3.1s-1.4 3.1-3.1 3.1-3.1-1.4-3.1-3.1 1.3-3.1 3.1-3.1z" fill="#fff"/><path d="m42.6 25.7c1.7 0 3.1 1.4 3.1 3.1s-1.4 3.1-3.1 3.1-3.1-1.4-3.1-3.1 1.3-3.1 3.1-3.1z" fill="#e6e6e5"/><path d="m27.1 27.3c.9 0 1.6.7 1.6 1.5 0 .9-.7 1.5-1.6 1.5s-1.6-.7-1.6-1.5.7-1.5 1.6-1.5z" fill="#414a4e"/><path d="m19.3 21.1h1.6v13.9c0 1.7 1.4 3.1 3.1 3.1a10.8 10.8 0 0 0 19.1 6.9l7.3 7.3c-.5.7-1.2 1.1-2.1 1.2a3.1 3.1 0 0 1 -3.8 1.4c-.5 1-1.6 1.7-2.8 1.7-.5 0-1-.1-1.5-.4-.6.7-1.1 1.1-2.4 1.1h-6.2c-1 0-1.8-.4-2.4-1.1-.4.2-.9.4-1.5.4-1.2 0-2.3-.7-2.8-1.7-.3.1-.7.2-1.1.2-1.2 0-2.2-.6-2.7-1.6-1.5-.2-2.7-1.5-2.7-3.1 1.3 0 2.3-.7 2.8-1.8-.4.2-.8.3-1.3.3-1.7 0-3.1-1.4-3.1-3.1 1.2 0 2.2-.6 2.7-1.6h-.4c-1.7 0-3.1-1.4-3.1-3.1.6 0 1.1-.2 1.5-.4-.9-.5-1.5-1.5-1.5-2.7.6 0 1.1-.2 1.5-.4-.9-.5-1.5-1.5-1.5-2.7 1.7 0 3.1-1.4 3.1-3.1v-10.7z" fill="#653614"/><path d="m42.5 45.8c2-2 3.2-4.7 3.2-7.7 1.7 0 3.1-1.4 3.1-3.1v-13.9h1.5v10.9c0 1.7 1.4 3.1 3.1 3.1 0 1.1-.6 2.1-1.6 2.7.5.3 1 .4 1.6.4 0 1.1-.6 2.1-1.6 2.7.5.3 1 .4 1.6.4 0 1.7-1.4 3.1-3.1 3.1h-.4c.5.9 1.5 1.6 2.7 1.6 0 1.7-1.4 3.1-3.1 3.1-.5 0-.9-.1-1.3-.3.5 1.1 1.6 1.8 2.8 1.8 0 1-.5 2-1.3 2.5z" fill="#402511"/><path d="m42.6 27.3c.9 0 1.5.7 1.5 1.5 0 .9-.7 1.5-1.5 1.5-.9 0-1.6-.7-1.6-1.5s.7-1.5 1.6-1.5z" fill="#414a4e"/><path d="m25.5 28.1c.4 0 .8.3.8.8 0 .4-.3.8-.8.8-.4 0-.8-.3-.8-.8s.4-.8.8-.8zm24.8-5.9v-5.7c0-6.8-5.6-12.4-12.4-12.4h-6.2c-6.8 0-12.4 5.6-12.4 12.4v5.7c4.8-1.7 10.1-2.6 15.5-2.6s10.7.9 15.5 2.6z" fill="#fff"/><path d="m50.3 22.2v-5.7c0-6.8-5.6-12.4-12.4-12.4h-3.1v15.5c5.4-.1 10.7.9 15.5 2.6z" fill="#e6e6e5"/><path d="m41 28.1c.4 0 .8.3.8.8 0 .4-.3.8-.8.8-.4 0-.8-.3-.8-.8s.4-.8.8-.8z" fill="#fff"/><path d="m27 38.1h1.6c.9 0 1.5-.7 1.5-1.5s.8-1.5 1.5-1.5l4.6 1.5v3.1c-.6 0-1.1-.2-1.6-.6-.4.4-1 .6-1.5.6h-6.2c-.6 0-1.2-.3-1.6-.7s-.7-1-.7-1.6c0-.4.3-.8.8-.8.4 0 .8.3.8.8.1.4.4.7.8.7z" fill="#653614"/><path d="m31.7 35h6.2c.8 0 1.5.8 1.5 1.5 0 .9.7 1.5 1.5 1.5h1.6c.4 0 .8-.3.8-.8 0-.4.3-.8.8-.8.4 0 .8.3.8.8 0 1.3-1 2.3-2.3 2.3h-6.2zm-.6-9.8c.3.3.3.8-.1 1.1-.3.3-.8.3-1.1-.1-.7-.8-1.8-1.3-2.9-1.3s-2.1.5-2.9 1.3c-.3.3-.8.3-1.1.1a.9.9 0 0 1 -.1-1.1c1-1.2 2.5-1.8 4-1.8s3.2.7 4.2 1.8zm15.5 0c.3.3.3.8-.1 1.1-.3.3-.8.3-1.1-.1-.7-.8-1.8-1.3-2.9-1.3s-2.1.5-2.9 1.3c-.3.3-.8.3-1.1.1a.9.9 0 0 1 -.1-1.1c1-1.2 2.5-1.8 4-1.8 1.7 0 3.2.7 4.2 1.8z" fill="#402511"/><path d="m33.3 31.9c-.9 0-1.5.7-1.5 1.6s.7 1.5 1.5 1.5h4.6l-3.1-3.1z" fill="#e8b274"/><path d="m34 28.8c0-.4.3-.8.8-.8s.8.3.8.8v3.1c0 .4-.3.8-.8.8h-1.5c-.4 0-.8.3-.8.8 0 .4.3.8.8.8h1.5c.4 0 .8.3.8.8 0 .4-.3.8-.8.8h-1.5c-1.3 0-2.3-1-2.3-2.3s1-2.3 2.3-2.3h.8v-2.5z" fill="#a87942"/><path d="m34.8 4c-6.8 0-12.4 5.6-12.4 12.4v4.8c3.9-1.1 8.1-1.7 12.4-1.7l3.1-6.2z" fill="#ca3927"/><path d="m34.8 4v15.5c4.3 0 8.4.6 12.4 1.7v-4.8c0-6.8-5.6-12.4-12.4-12.4z" fill="#991b1e"/><path d="m34.8 18.8c2.7 0 5.4.2 8 .7 2.7.5 5.3 1.1 7.7 2 .4.1.6.6.5 1s-.6.6-1 .5c-2.4-.9-4.9-1.5-7.5-1.9a49 49 0 0 0 -7.7-.7l-.8-.8z" fill="#788890"/><path d="m19.6 22.9c-.4.1-.8-.1-1-.5-.1-.4.1-.8.5-1 2.5-.9 5.1-1.6 7.7-2s5.3-.7 8-.7v1.5c-2.6 0-5.2.2-7.7.7-2.6.5-5.1 1.2-7.5 2z" fill="#a0b4ba"/><path d="m16.2 118.7h37.2v33.5l-17-16.4c-.1-.9-.7-1.5-1.5-1.5-.9 0-1.5.7-1.5 1.5l-6.2 72.8h-10.8v-89.9z" fill="#653614"/><path d="m53.4 152.2v56.4h-10.8l-6.2-72.8c0-.4-.2-.8-.4-1zm-9.3-33.5h9.3v9.3" fill="#402511"/><path d="m16.2 145c0 .4-.3.8-.8.8a.8.8 0 0 1 -.8-.8v-3c0-.4-.3-.8-.8-.8-.4 0-.8.3-.8.8v4.6c0 .4-.3.8-.8.8a.8.8 0 0 1 -.8-.8v.8c0 .4-.3.8-.8.8a.8.8 0 0 1 -.8-.8v-.8c0 .4-.3.8-.8.8a.8.8 0 0 1 -.8-.8v-2.3c0 .4-.3.8-.8.8a.8.8 0 0 1 -.8-.8v-58.1h9.3v58.8z" fill="#e8b274"/><path d="m44.1 53.6c0 4-2.5 7.5-6.2 8.8v50.1h15.5v-26.4c-2-3.1-3.1-6.8-3.1-10.7v-9.4c0-3.4 2.7-6.2 6.2-6.2z" fill="#a5c5e8"/><path d="m44.1 53.6c0 4-2.5 7.5-6.2 8.8v7.5l14.6 14.6c-1.4-2.7-2.2-5.8-2.2-9.1v-9.4c0-3.4 2.7-6.2 6.2-6.2z" fill="#799dc9"/><path d="m53.4 145c0 .4.3.8.8.8.4 0 .8-.3.8-.8v-3c0-.4.3-.8.8-.8.4 0 .8.3.8.8v4.6c0 .4.3.8.8.8.4 0 .8-.3.8-.8v.8c0 .4.3.8.8.8.4 0 .8-.3.8-.8v-.8c0 .4.3.8.8.8.4 0 .8-.3.8-.8v-2.3c0 .4.3.8.8.8.4 0 .8-.3.8-.8v-58.1h-9.3v58.8h-.3z" fill="#c79255"/><path d="m53.4 145c0 .4.3.8.8.8.4 0 .8-.3.8-.8v-3c0-.4.3-.8.8-.8.4 0 .8.3.8.8v4.6c0 .4.3.8.8.8.4 0 .8-.3.8-.8v.8c0 .4.3.8.8.8.4 0 .8-.3.8-.8v-.8c0 .4.3.8.8.8.4 0 .8-.3.8-.8v-2.3c0 .4.3.8.8.8.4 0 .8-.3.8-.8v-7l-9.3-9.3v17h-.3z" fill="#e8b274"/><path d="m.7 217.9h27.9v2.3c0 .4-.3.8-.8.8h-26.3a.8.8 0 0 1 -.8-.8z" fill="#fff"/><path d="m27.1 207c.4 0 .8.3.8.8v1.5c0 .3-.1.5-.3.6.6 2.6 1 5.4 1.1 7.9h-27.9c0-1.3.8-2.6 2.1-2.9l9.2-2c1.6-.4 2.8-1.7 3.6-3.1-.1-.1-.1-.3-.1-.4v-1.5c0-.4.3-.8.8-.8h10.7z" fill="#ca3927"/><path d="m27.7 211 .3 1.5c-1.3.1-2.4.7-3.3 1.6-1 1-1.6 2.3-1.6 3.8h-1.5c0-1.9.8-3.7 2-4.9 1.1-1.1 2.6-1.8 4.1-2zm-13.8 6.9h-1.6c0-.6-.3-1.2-.7-1.6s-1-.7-1.6-.7h-8.3c.3-.3.7-.5 1.1-.6l4.2-.9h3c1.1 0 2 .4 2.7 1.1.8.6 1.2 1.6 1.2 2.7z" fill="#991b1e"/><path d="m6.9 126.5h4.7v3.1h-4.7" fill="#653614"/><path d="m16.2 126.5h-4.6v3.1h4.6" fill="#402511"/><path d="m11.6 124.9c1.7 0 3.1 1.4 3.1 3.1s-1.4 3.1-3.1 3.1-3.1-1.4-3.1-3.1 1.4-3.1 3.1-3.1z" fill="#435055"/><path d="m11.6 126.5c.9 0 1.6.7 1.6 1.5 0 .9-.7 1.5-1.6 1.5s-1.5-.7-1.5-1.5c-.1-.9.6-1.5 1.5-1.5z" fill="#fff"/><path d="m26.3 95.5c0 2.8-1.1 5.3-2.9 7.1a9.97 9.97 0 0 1 -7.1 2.9v-1.5c2.4 0 4.5-1 6-2.5s2.5-3.7 2.5-6zm17 0c0 2.8 1.1 5.3 3 7.1 1.8 1.8 4.3 2.9 7.1 2.9v-1.5c-2.4 0-4.5-1-6-2.5s-2.5-3.7-2.5-6z" fill="#799dc9"/><path d="m68.9 217.9h-27.9v2.3c0 .4.3.8.8.8h26.3c.4 0 .8-.3.8-.8z" fill="#e6e6e5"/><path d="m42.5 207c-.4 0-.8.3-.8.8v1.5c0 .3.1.5.3.6-.6 2.6-1 5.4-1.1 7.9h27.9c0-1.3-.8-2.6-2.1-2.9l-9.2-2c-1.6-.4-2.8-1.7-3.6-3.1.1-.1.1-.3.1-.4v-1.5c0-.4-.3-.8-.8-.8h-10.7z" fill="#991b1e"/><path d="m41.9 211-.3 1.5c1.3.1 2.4.7 3.3 1.6 1 1 1.6 2.3 1.6 3.8h1.6c0-1.9-.8-3.7-2-4.9a7.5 7.5 0 0 0 -4.2-2zm13.8 6.9h1.6c0-.6.3-1.2.7-1.6s1-.7 1.6-.7h8.3c-.3-.3-.7-.5-1.1-.6l-4.2-.9h-3c-1.1 0-2 .4-2.7 1.1-.7.6-1.2 1.6-1.2 2.7z" fill="#653614"/><path d="m186.6 44.3h18.6v21.7h-18.6" fill="#a87942"/><path d="m177.4 118.7h37.2v33.5l-17-16.4c-.1-.9-.7-1.5-1.5-1.5-.9 0-1.5.7-1.5 1.5l-6.2 72.8h-10.8v-89.9z" fill="#a5c5e8"/><path d="m214.5 152.2v56.4h-10.8l-6.2-72.8c0-.4-.2-.8-.4-1z" fill="#799dc9"/><path d="m205.2 118.7h9.3v9.3" fill="#402511"/><path d="m177.4 145c0 .4-.3.8-.8.8a.8.8 0 0 1 -.8-.8v-3c0-.4-.3-.8-.8-.8-.4 0-.8.3-.8.8v4.6c0 .4-.3.8-.8.8a.8.8 0 0 1 -.8-.8v.8c0 .4-.3.8-.8.8a.8.8 0 0 1 -.8-.8v-.8c0 .4-.3.8-.8.8a.8.8 0 0 1 -.8-.8v-2.3c0 .4-.3.8-.8.8a.8.8 0 0 1 -.8-.8v-59.7h9.3v60.4z" fill="#9e5132"/><path d="m161.9 217.9h27.9v2.3c0 .4-.3.8-.8.8h-26.3a.8.8 0 0 1 -.8-.8z" fill="#fff"/><path d="m188.2 207.8c.4 0 .8.3.8.8v.8c0 .3-.1.5-.3.6.6 2.6 1 5.4 1.1 7.9h-27.9c0-1.3.8-2.6 2.1-2.9l9.2-2c1.6-.4 2.8-1.7 3.6-3.1-.1-.1-.1-.3-.1-.4v-.8c0-.4.3-.8.8-.8h10.7z" fill="#ffcd05"/><path d="m167.3 214.2 1.6-.3v.9c0 .4-.3.8-.8.8a.8.8 0 0 1 -.8-.8zm3.1-.7 1.5-.3.4 1.4c.1.4-.1.8-.5.9s-.8-.1-.9-.5zm3.1-.7c.5-.2.9-.4 1.4-.7l.8 1.4c.2.4.1.8-.3 1.1-.4.2-.8.1-1.1-.3zm2.3-1.6c.3-.4.6-.9.9-1.3l1.2 1.2c.3.3.3.8 0 1.1s-.8.3-1.1 0z" fill="#b8952f"/><path d="m168.1 126.5h4.6v3.1h-4.6" fill="#435055"/><path d="m177.4 126.5h-4.7v3.1h4.7" fill="#232d30"/><path d="m186.6 44.3h18.6v21.7h-18.6" fill="#9e5132"/><path d="m186.6 44.3h18.6v21.7h-3.3l-15.3-15.2" fill="#814127"/><path d="m195.9 1c12 0 21.7 9.7 21.7 21.7s-9.7 21.7-21.7 21.7l-1.5-21.7z" fill="#232d30"/><path d="m168.1 84.6v-18.6c0-3.1 1.6-3.9 3.1-4.6l15.5-7.7c0 5.2 4.2 9.3 9.3 9.3s9.3-4.2 9.3-9.3l25.5 6.7c1.5.8 3.1 8.7 3.1 8.7l-19.3 15.5v43.4h-37.2v-43.4z" fill="#ffcd05"/><path d="m214.5 90.8v31l-27.9-27.9 18.6-12.4" fill="#b8952f"/><path d="m195.9 44.3c-12 0-21.7-9.7-21.7-21.7s9.7-21.7 21.7-21.7z" fill="#435055"/><path d="m185.1 54.4 1.6-.8v31l-1.6-3.1zm20.1 21.7 1.5.8v4.7l-1.5 3.1z" fill="#414a4e"/><path d="m205.2 53.7v-.1l1.6.8v23.2l-1.6-1.5" fill="#232d30"/><path d="m211.4 25.7c-1.7 0-3.1 1.4-3.1 3.1s1.4 3.1 3.1 3.1 3.1-1.4 3.1-3.1-1.3-3.1-3.1-3.1z" fill="#9e5132"/><path d="m211.4 27.3c-.9 0-1.5.7-1.5 1.5 0 .9.7 1.5 1.5 1.5.9 0 1.5-.7 1.5-1.5.1-.8-.6-1.5-1.5-1.5z" fill="#814127"/><path d="m180.5 25.7c-1.7 0-3.1 1.4-3.1 3.1s1.4 3.1 3.1 3.1 3.1-1.4 3.1-3.1-1.4-3.1-3.1-3.1z" fill="#9e5132"/><path d="m180.5 27.3c-.9 0-1.6.7-1.6 1.5 0 .9.7 1.5 1.6 1.5s1.5-.7 1.5-1.5-.7-1.5-1.5-1.5z" fill="#814127"/><path d="m207.9 12.8c2.2 2.7 3.5 6.1 3.5 9.8v15.5c0 8.5-7 15.5-15.5 15.5s-15.5-7-15.5-15.5v-15.5c0-3.7 1.3-7.1 3.5-9.8 3.4 2.3 7.6 3.6 12 3.6 4.5 0 8.6-1.3 12-3.6z" fill="#9e5132"/><path d="m195.9 44.3c3.4 0 6.2-2.8 6.2-6.2h-12.4c0 3.5 2.8 6.2 6.2 6.2z" fill="#232d30"/><path d="m195.9 44.3c1.1 0 2.1-.3 3-.8a6.1 6.1 0 0 0 -6 0c.9.6 2 .8 3 .8z" fill="#de324f"/><path d="m188.2 25.7c1.7 0 3.1 1.4 3.1 3.1s-1.4 3.1-3.1 3.1-3.1-1.4-3.1-3.1 1.4-3.1 3.1-3.1zm12.4 12.4c0 .9-.7 1.5-1.6 1.5h-6.2c-.9 0-1.5-.7-1.5-1.5zm3.1-12.4c1.7 0 3.1 1.4 3.1 3.1s-1.4 3.1-3.1 3.1-3.1-1.4-3.1-3.1 1.4-3.1 3.1-3.1z" fill="#fff"/><path d="m188.2 27.3c.9 0 1.5.7 1.5 1.5 0 .9-.7 1.5-1.5 1.5-.9 0-1.6-.7-1.6-1.5s.7-1.5 1.6-1.5zm15.5 0c.9 0 1.5.7 1.5 1.6s-.7 1.5-1.5 1.5c-.9 0-1.5-.7-1.5-1.5-.1-.9.6-1.6 1.5-1.6z" fill="#232d30"/><path d="m186.6 28.1c.4 0 .8.3.8.8 0 .4-.3.8-.8.8a.8.8 0 0 1 -.8-.8c.1-.5.4-.8.8-.8zm15.5 0c.4 0 .8.3.8.8 0 .4-.3.8-.8.8a.8.8 0 0 1 -.8-.8c.1-.5.4-.8.8-.8z" fill="#fff"/><path d="m192.2 24.5c.3.3.3.8-.1 1.1-.3.3-.8.3-1.1-.1-.7-.8-1.8-1.3-2.9-1.3s-2.1.5-2.9 1.3c-.3.3-.8.3-1.1.1a.9.9 0 0 1 -.1-1.1c1-1.1 2.5-1.8 4-1.8a5 5 0 0 1 4.2 1.8zm15.5-.8c.3.3.3.8-.1 1.1-.3.3-.8.3-1.1-.1-.7-.8-1.8-1.3-2.9-1.3s-2.1.5-2.9 1.3c-.3.3-.8.3-1.1.1s-.3-.8-.1-1.1c1-1.1 2.5-1.8 4-1.8 1.7 0 3.2.6 4.2 1.8z" fill="#232d30"/><path d="m210.7 16.4c0-.4.3-.8.8-.8.4 0 .8.3.8.8v21.7c0 8.9-7.3 16.3-16.3 16.3l-1.5-3.5 1.5-3.5c2.4 0 4.6-.9 6.2-2.4v6.4c5.2-2.4 8.5-7.6 8.5-13.3z" fill="#232d30"/><path d="m195.9 54.4c-9 0-16.3-7.3-16.3-16.3v-21.7c0-.4.3-.8.8-.8.4 0 .8.3.8.8v21.7c0 5.7 3.4 10.9 8.5 13.3v-6.4c1.6 1.5 3.8 2.4 6.2 2.4z" fill="#435055"/><path d="m208.3 26.5h-7.7c-.4 0-.8.3-.8.8v1.6c0 1.3 1 2.3 2.3 2.3h3.9c1.3 0 2.3-1 2.3-2.3zm-12.4-1.5c1 0 2 .4 2.7 1.1.4-.7 1.2-1.1 2-1.1h11.6c.4 0 .8.3.8.8 0 .4-.3.8-.8.8h-2.3v2.3c0 2.1-1.7 3.9-3.9 3.9h-3.9a3.9 3.9 0 0 1 -3.9-3.9c0-1.3-1-2.3-2.3-2.3l-.6-.8z" fill="#799dc9"/><path d="m179.7 26.5a.8.8 0 0 1 -.8-.8c0-.4.3-.8.8-.8h11.6c.8 0 1.5.4 2 1.1.7-.7 1.6-1.1 2.7-1.1v1.5c-1.3 0-2.3 1-2.3 2.3 0 2.1-1.7 3.9-3.9 3.9h-3.9a3.9 3.9 0 0 1 -3.9-3.9v-2.3h-2.3zm11.6 0h-7.7v2.3c0 1.3 1 2.3 2.3 2.3h3.9c1.3 0 2.3-1 2.3-2.3v-1.5c0-.4-.4-.8-.8-.8z" fill="#a5c5e8"/><path d="m198.3 28.8c0-.4-.3-.8-.8-.8-.4 0-.8.3-.8.8v3.1c0 .4.3.8.8.8h1.5c.4 0 .8.3.8.8 0 .4-.3.8-.8.8h-6.2a.8.8 0 0 1 -.8-.8c0-.4.3-.8.8-.8h1.6c.4 0 .8-.3.8-.8v-3.1c0-.4-.3-.8-.8-.8s-.8.3-.8.8v2.3h-.8c-1.3 0-2.3 1-2.3 2.3s1 2.3 2.3 2.3h6.2c1.3 0 2.3-1 2.3-2.3s-1-2.3-2.3-2.3h-.8v-2.3z" fill="#814127"/><path d="m171.2 124.9h3.1c.9 0 1.6.7 1.6 1.5v3.1c0 .9-.7 1.5-1.6 1.5h-3.1c-.9 0-1.5-.7-1.5-1.5v-3.1c-.1-.8.6-1.5 1.5-1.5z" fill="#435055"/><path d="m171.2 126.5h3.1v3.1h-3.1" fill="#fff"/><path d="m186.6 131.1c-.7 1.8-2 3.3-3.5 4.4a9.53 9.53 0 0 1 -5.8 1.8v-1.5c1.8 0 3.5-.6 4.9-1.6 1.1-.8 2-1.9 2.7-3.1zm18.6 0c.7 1.8 2 3.3 3.5 4.4 1.6 1.2 3.6 1.8 5.8 1.8v-1.5c-1.8 0-3.5-.6-4.9-1.6-1.1-.8-2-1.9-2.7-3.1z" fill="#799dc9"/><path d="m230 217.9h-27.9v2.3c0 .4.3.8.8.8h26.3c.4 0 .8-.3.8-.8z" fill="#e6e6e5"/><path d="m203.7 207.8c-.4 0-.8.3-.8.8v.8c0 .3.1.5.3.6-.6 2.6-1 5.4-1.1 7.9h27.9c0-1.3-.8-2.6-2.1-2.9l-9.2-2c-1.6-.4-2.8-1.7-3.6-3.1.1-.1.1-.3.1-.4v-.8c0-.4-.3-.8-.8-.8h-10.7z" fill="#b8952f"/><path d="m224.6 214.2-1.5-.3v.9c0 .4.3.8.8.8.4 0 .8-.3.8-.8v-.6zm-3.1-.7-1.5-.3-.4 1.4c-.1.4.1.8.5.9s.8-.1.9-.5zm-3.2-.7c-.5-.2-.9-.4-1.4-.7l-.8 1.4c-.2.4-.1.8.3 1.1.4.2.8.1 1.1-.3zm-2.2-1.6c-.3-.4-.6-.9-.9-1.3l-1.2 1.2c-.3.3-.3.8 0 1.1s.8.3 1.1 0z" fill="#ffcd05"/><path d="m186.6 83.1h18.6v10.8h-18.6" fill="#414a4e"/><path d="m186.6 81.5h18.6v3.1h-18.6" fill="#fff"/><path d="m195.9 83.1c2.6 0 4.7 2.1 4.7 4.6 0 2.6-2.1 4.6-4.7 4.6s-4.6-2.1-4.6-4.6 2.1-4.6 4.6-4.6z" fill="#788890"/><path d="m195.9 85c1.5 0 2.7 1.2 2.7 2.7s-1.2 2.7-2.7 2.7a2.7 2.7 0 0 1 -2.7-2.7c0-1.5 1.2-2.7 2.7-2.7zm7-2.7h1.6v1.5h-1.6" fill="#232d30"/><path d="m113.8 140.4v75.9h-7.7l-1.5-3.1c.9 0 1.7-.7 1.5-1.6l-10.2-71.3h17.9z" fill="#653614"/><path d="m113.8 140.4v26.6l-16.5-16.4-1.4-10.2m39 0-10.2 71.3c-.1.8.7 1.6 1.5 1.6l-1.5 3.1h-7.7v-76.9z" fill="#402511"/><path d="m130.9 21.7h-30.7v46.4h30.7" fill="#377979"/><path d="m115.4 0c12 0 21.7 9.7 21.7 21.7s-9.7 21.7-21.7 21.7-21.7-9.7-21.7-21.7 9.7-21.7 21.7-21.7z" fill="#5ca3a3"/><path d="m140.2 70.3c-.5.3-1.1.7-1.6 1h-46.4c-.5-.3-1.1-.6-1.6-1v-6.8c0-3.1 1.6-3.9 3.1-4.6l13.9-7v-8.5h15.5v8.5l13.9 7c1.5.8 3.1 1.5 3.1 4.6v6.8z" fill="#fcd6cc"/><path d="m140.2 70.3c-.5.3-1.1.7-1.6 1h-8.7l-22.3-22.3v-5.7h15.5v8.5l13.9 7c1.5.8 3.1 1.5 3.1 4.6v6.9z" fill="#f6c0b2"/><path d="m140.2 139.4h-49.6v-75.9c0-3.1 1.6-3.9 3.1-4.6l13.9-7a7.7 7.7 0 0 0 15.4 0l13.9 7c1.5.8 3.1 1.5 3.1 4.6v75.9zm-9.3-65.1c-2 5-3.1 9.9-3.1 15.5s1.1 11.1 3.1 15.7zm-31 31c2-4.9 3.1-9.9 3.1-15.5 0-5.5-1.1-10.8-3.1-15.5z" fill="#a5c5e8"/><path d="m129.1 54.9 7.9 4c1.5.8 3.1 1.5 3.1 4.6v24l-9.3-9.3v-3.9c-.4 1-.7 1.9-1 2.9l-11.5-11.5z" fill="#799dc9"/><path d="m130.9 110.1-28.2-28.2v-.1a7.7 7.7 0 0 0 10.4-.5c.6-.6 1.4-.9 2.2-.9.9 0 1.6.3 2.2.9 1.4 1.4 3.4 2.3 5.5 2.3 1.9 0 3.6-.7 5-1.8.1-.1.3-.2.5-.4-.6 2.7-.9 5.4-.9 8.4 0 5.6 1.1 11.1 3.1 15.7.2-37.5.2-22.1.2 4.6z" fill="#799dc9"/><path d="m96.9 57.2 10.7-5.4c0 4.3 3.5 7.7 7.7 7.7-.4 4.8-4.4 8.5-9.3 8.5-5.1 0-9.3-4.2-9.3-9.3.1-.4.1-.9.2-1.5z" fill="#fff"/><path d="m130.9 35.6c0 8.5-7 15.5-15.5 15.5s-15.5-7-15.5-15.5v-14.7c3.3-1.2 6.1-3.6 7.7-6.7a30.7 30.7 0 0 0 20.2 7.5c1 0 2.1-.1 3.1-.2z" fill="#fcd6cc"/><path d="m130.9 35.6c0 .6 0 1.2-.1 1.8l-23.2-23.2a30.7 30.7 0 0 0 20.2 7.5c1 0 2.1-.1 3.1-.2z" fill="#f6c0b2"/><path d="m103 22.6a7.07 7.07 0 0 1 9.2 0l-1 1.2c-1-.9-2.3-1.4-3.6-1.4s-2.6.5-3.6 1.4zm15.5 0c.9-.8 2-1.3 3.1-1.6 1.5.3 3 .5 4.6.6.5.3 1 .6 1.5 1l-1 1.2c-1-.9-2.3-1.4-3.6-1.4s-2.6.5-3.6 1.4z" fill="#b08c82"/><path d="m121.1 38.5c.3-.3.8-.3 1.1.1.3.3.3.8-.1 1.1-1.9 1.6-4.2 2.5-6.7 2.5s-4.9-.9-6.7-2.5a.9.9 0 0 1 -.1-1.1c.3-.3.8-.3 1.1-.1 1.6 1.4 3.6 2.1 5.7 2.1 2.1.1 4.1-.7 5.7-2.1z" fill="#991b1e"/><path d="m107.7 24.8c1.7 0 3.1 1.4 3.1 3.1s-1.4 3.1-3.1 3.1-3.1-1.4-3.1-3.1 1.3-3.1 3.1-3.1zm15.4 0c1.7 0 3.1 1.4 3.1 3.1s-1.4 3.1-3.1 3.1-3.1-1.4-3.1-3.1 1.4-3.1 3.1-3.1z" fill="#fff"/><path d="m123.1 24.8c1.7 0 3.1 1.4 3.1 3.1 0 1.3-.9 2.5-2.1 2.9l-4-4c.5-1.2 1.7-2 3-2z" fill="#e6e6e5"/><path d="m107.7 26.3c.9 0 1.5.7 1.5 1.5 0 .9-.7 1.5-1.5 1.5-.9 0-1.6-.7-1.6-1.5s.7-1.5 1.6-1.5zm15.4 0c.9 0 1.5.7 1.5 1.5 0 .9-.7 1.5-1.5 1.5-.9 0-1.6-.7-1.6-1.5.1-.8.8-1.5 1.6-1.5z" fill="#435055"/><path d="m106.1 27.1c.4 0 .8.3.8.8 0 .4-.3.8-.8.8-.4 0-.8-.3-.8-.8s.4-.8.8-.8zm15.5 0c.4 0 .8.3.8.8 0 .4-.3.8-.8.8-.4 0-.8-.3-.8-.8s.4-.8.8-.8z" fill="#fff"/><path d="m133.8 57.2-10.6-5.4c0 4.3-3.5 7.7-7.8 7.7.4 4.8 4.4 8.5 9.3 8.5 5.1 0 9.3-4.2 9.3-9.3-.1-.4-.1-.9-.2-1.5z" fill="#e6e6e5"/><path d="m103 9.3-9.3 12.4v46.5c5.1 0 9.3-4.2 9.3-9.3zm24.8 3.1 9.3 9.3v46.5c-5.1 0-9.3-4.2-9.3-9.3z" fill="#5ca3a3"/><path d="m121.6 25.5c-1.3 0-2.3 1-2.3 2.3 0 2.4 1.9 4.3 4.3 4.3s4.3-1.9 4.3-4.3v-2.3zm-6.2 0-.8-.8.8-.8c1.2 0 2.4.6 3.1 1.6.7-1 1.9-1.5 3.1-1.5h7c.4 0 .8.3.8.8v3.1a5.8 5.8 0 0 1 -11.6 0c-.1-1.3-1.1-2.4-2.4-2.4z" fill="#9a5635"/><path d="m115.4 25.5c-1.3 0-2.3 1-2.3 2.3a5.8 5.8 0 0 1 -11.6 0v-3.1c0-.4.3-.8.8-.8h7c1.2 0 2.4.6 3.1 1.5.7-1 1.9-1.6 3.1-1.6v1.7zm-6.2 0h-6.2v2.3c0 2.4 1.9 4.3 4.3 4.3s4.3-1.9 4.3-4.3c-.1-1.2-1.1-2.3-2.4-2.3z" fill="#bb653d"/><path d="m115.4 65c.9 0 1.6.7 1.6 1.5 0 .9-.7 1.5-1.6 1.5s-1.5-.7-1.5-1.5c-.1-.8.6-1.5 1.5-1.5z" fill="#fff"/><path d="m116.5 65.5c.3.3.5.7.5 1.1 0 .9-.7 1.5-1.6 1.5-.4 0-.8-.2-1.1-.5z" fill="#e6e6e5"/><path d="m114.6 27.9c0-.4.3-.8.8-.8.4 0 .8.3.8.8v3.1c0 .4-.3.8-.8.8h-1.5c-.4 0-.8.3-.8.8 0 .4.3.8.8.8h1.5c.4 0 .8.3.8.8s-.3.8-.8.8h-1.5c-1.3 0-2.3-1-2.3-2.3s1-2.3 2.3-2.3h.8v-2.5z" fill="#b08c82"/><path d="m115.4 71.2c.9 0 1.6.7 1.6 1.5 0 .9-.7 1.5-1.6 1.5s-1.5-.7-1.5-1.5c-.1-.8.6-1.5 1.5-1.5z" fill="#fff"/><path d="m116.5 71.7c.3.3.5.7.5 1.1 0 .9-.7 1.5-1.6 1.5-.4 0-.8-.2-1.1-.5z" fill="#e6e6e5"/><path d="m98.3 123.9h-7.7v-6.2h7.7m41.9 6.2h-7.8v-6.2h7.8m-24.8-40.3c.9 0 1.6.7 1.6 1.5 0 .9-.7 1.5-1.6 1.5s-1.5-.7-1.5-1.5c-.1-.8.6-1.5 1.5-1.5z" fill="#fff"/><path d="m116.5 77.9c.3.3.5.7.5 1.1 0 .9-.7 1.5-1.6 1.5-.4 0-.8-.2-1.1-.5z" fill="#e6e6e5"/><path d="m115.4 83.6c.9 0 1.6.7 1.6 1.5 0 .9-.7 1.5-1.6 1.5s-1.5-.7-1.5-1.5c-.1-.8.6-1.5 1.5-1.5z" fill="#fff"/><path d="m116.5 84.1c.3.3.5.7.5 1.1 0 .9-.7 1.5-1.6 1.5-.4 0-.8-.2-1.1-.5z" fill="#e6e6e5"/><path d="m115.4 217.9h-23.2v1.6c0 .9.7 1.5 1.5 1.5h20.1c.9 0 1.5-.7 1.5-1.5v-1.6z" fill="#fff"/><path d="m92.1 217.9c0-1.4 1-2.6 2.3-3l10.8-3c.9 1.7 2.7 2.9 4.8 2.9 1.5 0 2.8-.6 3.8-1.5.2-.2.4-.2.6-.2.2.1.4.2.4.4.4 1.4.6 2.8.6 4.4z" fill="#ca3927"/><path d="m115.4 217.9h23.2v1.6c0 .9-.7 1.5-1.5 1.5h-20.1c-.9 0-1.6-.7-1.6-1.5z" fill="#e6e6e5"/><path d="m138.6 217.9c0-1.4-1-2.6-2.3-3l-10.8-3c-.9 1.7-2.7 2.9-4.8 2.9-1.5 0-2.8-.6-3.8-1.5-.2-.2-.4-.2-.6-.2-.2.1-.4.2-.4.4-.4 1.4-.6 2.8-.6 4.4z" fill="#991b1e"/><path d="m93.7 145.6c1.7 0 3.1-1.4 3.1-3.1 0 1.7 1.4 3.1 3.1 3.1s3.1-1.4 3.1-3.1c0 1.7 1.4 3.1 3.1 3.1s3.1-1.4 3.1-3.1c0 1.7 1.4 3.1 3.1 3.1s3.1-1.4 3.1-3.1c0 1.7 1.4 3.1 3.1 3.1s3.1-1.4 3.1-3.1c0 1.7 1.4 3.1 3.1 3.1 1.6 0 2.8-1.2 3.1-2.6.2 1.5 1.5 2.6 3.1 2.6 1.7 0 3.1-1.4 3.1-3.1h.1c0 1.7 1.4 3.1 3.1 3.1s3.1-1.4 3.1-3.1v-3.1h-49.6v3.1c-.1 1.7 1.3 3.1 3 3.1z" fill="#fff"/><path d="m130.9 137.9c0 .4.3.8.8.8.4 0 .8-.3.8-.8v-3.1c0-.4.3-.8.8-.8.4 0 .8.3.8.8v4.6c0 .4.3.8.8.8.4 0 .8-.3.8-.8v.8c0 .4.3.8.8.8.4 0 .8-.3.8-.8v-.8c0 .4.3.8.8.8.4 0 .8-.3.8-.8v-2.3c0 .4.3.8.8.8.4 0 .8-.3.8-.8v-13.2h-7.7l-.6 1.1c-.7 1.4-1 2.6-1 4.2v8.7h-.3zm-31 0c0 .4-.3.8-.8.8a.8.8 0 0 1 -.8-.8v-3.1c0-.4-.3-.8-.8-.8-.4 0-.8.3-.8.8v4.6c0 .4-.3.8-.8.8a.8.8 0 0 1 -.8-.8v.8c0 .4-.3.8-.8.8a.8.8 0 0 1 -.8-.8v-.8c0 .4-.3.8-.8.8a.8.8 0 0 1 -.8-.8v-2.3c0 .4-.3.8-.8.8a.8.8 0 0 1 -.8-.8v-13.2h7.7l.6 1.1c.7 1.4 1 2.6 1 4.2v8.7z" fill="#fcd6cc"/><path d="m268 220.1h46.2v-34.5h-46.2" fill="#da9a5b"/><path d="m314.2 202.86-17.33 17.24h17.32" opacity=".13"/><path d="m285.6 194.23h10.98v-8.62h-10.98" fill="#e5b486"/><path d="m293.3 202.4v4.4h2.22v-3.3h1.1v3.3h1.1v-3.3h1.12v3.3h1.1v-4.42h-6.63zm-3.36 3.33h1.16v-2.27h-1.16zm-2.2-3.34.03 5.5h2.2v-1.1h2.22v-4.5h-4.5zm-5.5 4.4h2.2v-3.4h1.1v3.3h1.1v-4.4h-4.4v4.4zm-1.14-5.6h20v6.7h-10v1.1h-4.45v-1.1h-5.55z" fill="#191008"/><path d="m297.8 184.5h46.2v-34.5h-46.2" fill="#da9a5b"/><path d="m344 167.25-17.33 17.25h17.33" opacity=".13"/><path d="m315.4 158.62h10.98v-8.62h-10.98" fill="#e5b486"/><path d="m323.1 166.78v4.42h2.22v-3.32h1.1v3.32h1.1v-3.3h1.1v3.3h1.1v-4.42zm-3.36 3.35h1.16v-2.27h-1.16v2.26zm-2.2-3.35.03 5.57h2.2v-1.1h2.23v-4.47h-4.45zm-5.5 4.44h2.2v-3.34h1.1v3.34h1.1v-4.42h-4.4zm-1.13-5.56h20v6.68h-10v1.07h-4.4v-1h-5.51v-6.7z" fill="#191008"/><path d="m315.7 220.1h46.18v-34.5h-46.2" fill="#da9a5b"/><path d="m361.88 202.86-17.32 17.24h17.32" opacity=".13"/><path d="m333.3 194.23h10.97v-8.62h-10.97" fill="#e5b486"/><path d="m341 202.4v4.4h2.2v-3.3h1.1v3.3h1.12v-3.3h1.1v3.3h1.12v-4.42h-6.64zm-3.38 3.33h1.16v-2.27h-1.15v2.27zm-2.18-3.34v5.5h2.2v-1.1h2.23v-4.5h-4.43zm-5.52 4.4h2.2v-3.4h1.1v3.3h1.1v-4.4h-4.4v4.4zm-1.14-5.6h19.98v6.7h-10v1.1h-4.44v-1.1h-5.56v-6.7z" fill="#191008"/></svg>